nColumns=19
nRows=56
DataType=double
version=3
OpenSimVersion=4.1
endheader
time	ground_force_calcn_l_vx	ground_force_calcn_l_vy	ground_force_calcn_l_vz	ground_force_calcn_l_px	ground_force_calcn_l_py	ground_force_calcn_l_pz	ground_force_calcn_l_mx	ground_force_calcn_l_my	ground_force_calcn_l_mz	ground_force_calcn_r_vx	ground_force_calcn_r_vy	ground_force_calcn_r_vz	ground_force_calcn_r_px	ground_force_calcn_r_py	ground_force_calcn_r_pz	ground_force_calcn_r_mx	ground_force_calcn_r_my	ground_force_calcn_r_mz
2.00501	-5.88908	106.632	-13.6305	-0.261455	-2.8668e-17	0.191275	0.149112	-2.69993	0.345124	-2.14946	228.582	28.1153	-0.247267	-2.73085e-17	-0.168671	-0.0226081	2.40423	0.295717
2.01499	-7.193	111.52	-13.0806	-0.260125	-2.85708e-17	0.189786	0.170637	-2.64554	0.310305	-4.31247	236.182	27.5528	-0.245264	-2.71107e-17	-0.168113	-0.039626	2.1702	0.253174
2.02496	-8.54114	119.467	-12.942	-0.258295	-2.84061e-17	0.188301	0.192027	-2.68594	0.29097	-6.4655	247.536	27.3611	-0.242993	-2.68787e-17	-0.167446	-0.0521134	1.9952	0.220536
2.03494	-9.93035	130.553	-13.2587	-0.256022	-2.81803e-17	0.186842	0.21468	-2.82238	0.286635	-8.61184	262.428	27.5491	-0.240529	-2.66204e-17	-0.166743	-0.0618997	1.88627	0.198016
2.04491	-11.3647	144.744	-14.0192	-0.253331	-2.78983e-17	0.185511	0.23998	-3.05643	0.296032	-10.7424	280.48	28.1121	-0.237959	-2.63457e-17	-0.166054	-0.0705429	1.84185	0.184606
2.05489	-12.8154	161.841	-15.1983	-0.250253	-2.75662e-17	0.184371	0.267274	-3.3753	0.316971	-12.8242	301.151	29.039	-0.235375	-2.60667e-17	-0.165394	-0.0780916	1.83382	0.176829
2.06486	-14.2428	181.454	-16.7644	-0.247027	-2.72128e-17	0.183417	0.295324	-3.76244	0.347608	-14.8205	323.76	30.2895	-0.232821	-2.57893e-17	-0.164768	-0.0842358	1.84016	0.172157
2.07484	-15.5738	203.022	-18.6933	-0.24388	-2.68643e-17	0.182654	0.322584	-4.20524	0.387198	-16.6844	347.509	31.7747	-0.230374	-2.55223e-17	-0.164197	-0.0893512	1.86104	0.170165
2.08481	-16.6966	225.805	-20.9495	-0.240935	-2.65356e-17	0.1821	0.346211	-4.68216	0.434397	-18.3168	371.507	33.3952	-0.228139	-2.52778e-17	-0.163671	-0.0931675	1.88966	0.169863
2.09479	-17.4865	248.921	-23.4575	-0.238287	-2.62373e-17	0.181819	0.364014	-5.18174	0.488311	-19.6245	394.815	35.0725	-0.22619	-2.50642e-17	-0.163166	-0.095358	1.91846	0.170422
2.10476	-17.8503	271.389	-26.1119	-0.23604	-2.59815e-17	0.181825	0.374575	-5.6949	0.547939	-20.5132	416.519	36.7115	-0.224572	-2.48864e-17	-0.162686	-0.0966149	1.96176	0.172907
2.11474	-17.6791	292.204	-28.7943	-0.234237	-2.57735e-17	0.182099	0.374925	-6.19687	0.610649	-20.8829	435.786	38.2308	-0.223301	-2.47462e-17	-0.162233	-0.0969432	2.02302	0.177476
2.12471	-16.8937	310.404	-31.3809	-0.232911	-2.56175e-17	0.182618	0.362446	-6.65956	0.673263	-20.66	451.883	39.5644	-0.222392	-2.4645e-17	-0.161798	-0.096557	2.11193	0.184909
2.13469	-15.502	325.164	-33.7233	-0.232045	-2.5512e-17	0.183353	0.336757	-7.06367	0.732587	-19.8499	464.269	40.6772	-0.221789	-2.45766e-17	-0.161387	-0.0957253	2.23892	0.196164
2.14467	-13.5971	335.908	-35.6882	-0.231588	-2.54517e-17	0.184243	0.299402	-7.39654	0.785837	-18.5132	472.636	41.5598	-0.22143	-2.45342e-17	-0.161013	-0.0938297	2.39545	0.210636
2.15464	-11.3155	342.363	-37.1825	-0.231499	-2.54322e-17	0.18523	0.252771	-7.64785	0.830597	-16.7595	476.921	42.218	-0.221248	-2.45106e-17	-0.16068	-0.0901655	2.56582	0.227131
2.16462	-8.85588	344.569	-38.1508	-0.231725	-2.54483e-17	0.186226	0.200554	-7.80325	0.863978	-14.7727	477.319	42.6408	-0.2212	-2.45013e-17	-0.160379	-0.084748	2.73829	0.244622
2.17459	-6.428	342.87	-38.5868	-0.232138	-2.54862e-17	0.187133	0.147313	-7.85768	0.884308	-12.7474	474.333	42.8197	-0.221213	-2.44983e-17	-0.160108	-0.0779549	2.90072	0.261858
2.18457	-4.19602	337.871	-38.5129	-0.232598	-2.55308e-17	0.187887	0.0970597	-7.81542	0.890856	-10.8287	468.702	42.7553	-0.221207	-2.44935e-17	-0.159859	-0.0699406	3.02727	0.27615
2.19454	-2.28543	330.376	-37.9794	-0.233033	-2.55747e-17	0.188444	0.0532129	-7.69231	0.884293	-9.14078	461.276	42.4806	-0.221128	-2.44813e-17	-0.159627	-0.0615201	3.10452	0.285907
2.20452	-0.801133	321.282	-37.0588	-0.233387	-2.56118e-17	0.188778	0.0187231	-7.5086	0.866091	-7.79556	452.906	42.0075	-0.22099	-2.44635e-17	-0.159399	-0.0539675	3.13541	0.290812
2.21449	0.202483	311.494	-35.8759	-0.2336	-2.56358e-17	0.188853	-0.00473396	-7.2826	0.838763	-6.84865	444.38	41.3626	-0.220782	-2.44393e-17	-0.159156	-0.0480115	3.11527	0.289967
2.22447	0.730097	301.861	-34.5443	-0.233615	-2.56405e-17	0.188686	-0.0170087	-7.03231	0.80476	-6.32237	436.351	40.6046	-0.220423	-2.43999e-17	-0.158888	-0.0439978	3.0366	0.282571
2.23444	0.818867	293.092	-33.1675	-0.23339	-2.56207e-17	0.188324	-0.0189569	-6.78513	0.767833	-6.21599	429.307	39.7815	-0.219866	-2.43402e-17	-0.158587	-0.0421415	2.9105	0.2697
2.24442	0.539019	285.701	-31.8559	-0.232939	-2.55779e-17	0.187783	-0.0123476	-6.54469	0.729737	-6.48456	423.537	38.9342	-0.219133	-2.42626e-17	-0.158232	-0.0419275	2.73848	0.251738
2.25439	-0.0190953	280.015	-30.7121	-0.232306	-2.55164e-17	0.187081	0.000430793	-6.3172	0.692871	-7.05179	419.189	38.0978	-0.218224	-2.41669e-17	-0.157808	-0.0425341	2.52841	0.229794
2.26437	-0.783968	276.183	-29.8039	-0.231513	-2.54376e-17	0.186254	0.0173693	-6.119	0.660323	-7.87089	416.293	37.2972	-0.217114	-2.40494e-17	-0.15733	-0.0435926	2.30562	0.206569
2.27434	-1.68071	274.219	-29.1646	-0.23054	-2.53386e-17	0.185337	0.036511	-5.95701	0.63356	-8.89364	414.772	36.5735	-0.215797	-2.39092e-17	-0.156803	-0.0446391	2.08183	0.18357
2.28432	-2.64459	274.02	-28.8206	-0.229445	-2.52251e-17	0.18435	0.0562506	-5.82842	0.613016	-10.0487	414.451	35.9464	-0.214315	-2.37504e-17	-0.156222	-0.0451857	1.86365	0.161639
2.29429	-3.62141	275.407	-28.7603	-0.228269	-2.51016e-17	0.183325	0.0754079	-5.73475	0.598871	-11.2804	415.101	35.4273	-0.212713	-2.35782e-17	-0.155603	-0.0449089	1.65258	0.141041
2.30427	-4.58478	278.129	-28.9516	-0.227052	-2.49719e-17	0.182289	0.0935841	-5.67714	0.590957	-12.5411	416.464	35.0267	-0.211021	-2.33954e-17	-0.154979	-0.0439063	1.45804	0.122628
2.31424	-5.49899	281.896	-29.3423	-0.225791	-2.48361e-17	0.181289	0.110297	-5.6542	0.588541	-13.7581	418.237	34.7483	-0.20926	-2.32042e-17	-0.154366	-0.042263	1.28477	0.106742
2.32422	-6.35235	286.352	-29.8878	-0.224517	-2.46974e-17	0.180338	0.12551	-5.65774	0.590523	-14.878	420.091	34.5698	-0.207497	-2.30123e-17	-0.153766	-0.0399718	1.12863	0.0928766
2.33419	-7.14313	291.115	-30.5313	-0.223288	-2.4563e-17	0.179422	0.139232	-5.67435	0.595108	-15.8731	421.718	34.4565	-0.205792	-2.28261e-17	-0.15319	-0.0373122	0.991317	0.0809955
2.34417	-7.85888	295.815	-31.2081	-0.22215	-2.44382e-17	0.178544	0.151278	-5.69425	0.600736	-16.7179	422.836	34.3695	-0.204167	-2.26485e-17	-0.152645	-0.0342892	0.867255	0.0704933
2.35414	-8.49407	300.133	-31.8357	-0.221098	-2.4323e-17	0.177708	0.161443	-5.7045	0.605089	-17.3965	423.198	34.282	-0.202619	-2.24793e-17	-0.152112	-0.0306905	0.746599	0.0604797
2.36412	-9.05994	303.815	-32.3528	-0.22008	-2.42117e-17	0.176923	0.170153	-5.70589	0.60761	-17.9274	422.638	34.1534	-0.201166	-2.23204e-17	-0.151584	-0.0269877	0.636235	0.0514142
2.37409	-9.55248	306.694	-32.715	-0.219086	-2.41035e-17	0.176205	0.177405	-5.6958	0.60757	-18.3415	421.074	33.9484	-0.199798	-2.21705e-17	-0.151064	-0.0236491	0.542923	0.0437722
2.38407	-9.95937	308.7	-32.8944	-0.218135	-2.40006e-17	0.175563	0.182859	-5.6679	0.603959	-18.6628	418.518	33.6481	-0.198516	-2.20299e-17	-0.150557	-0.0205784	0.461476	0.0371018
2.39404	-10.2973	309.862	-32.8864	-0.217215	-2.39015e-17	0.174999	0.187138	-5.63129	0.597663	-18.9127	415.082	33.2503	-0.197346	-2.19015e-17	-0.150077	-0.0175921	0.386098	0.0309285
2.40402	-10.5745	310.297	-32.7297	-0.216281	-2.38007e-17	0.174524	0.190824	-5.59953	0.590629	-19.1079	410.947	32.7763	-0.196319	-2.1789e-17	-0.149638	-0.0146291	0.314623	0.0250936
2.414	-10.7878	310.196	-32.485	-0.215354	-2.37003e-17	0.174151	0.193794	-5.5724	0.583565	-19.2357	406.37	32.2621	-0.19545	-2.16938e-17	-0.149265	-0.0120077	0.253674	0.0201394
2.42397	-10.9373	309.763	-32.2041	-0.214492	-2.36066e-17	0.173884	0.195986	-5.55067	0.577068	-19.2835	401.638	31.7468	-0.194771	-2.16193e-17	-0.148975	-0.0103534	0.21564	0.0170449
2.43395	-11.0374	309.208	-31.9438	-0.213753	-2.3526e-17	0.173709	0.197662	-5.53741	0.572059	-19.243	397.036	31.2788	-0.194293	-2.15664e-17	-0.148771	-0.00991205	0.204513	0.0161117
2.44392	-11.0926	308.747	-31.7453	-0.213148	-2.34597e-17	0.173618	0.198727	-5.53128	0.568724	-19.0996	392.821	30.8916	-0.194004	-2.15339e-17	-0.148646	-0.0105757	0.217511	0.0171051
2.4539	-11.1029	308.556	-31.667	-0.212694	-2.34094e-17	0.173594	0.199182	-5.53541	0.568096	-18.8627	389.213	30.6137	-0.193887	-2.15202e-17	-0.148602	-0.0121216	0.250117	0.0196731
2.46387	-11.0824	308.75	-31.7308	-0.212432	-2.33795e-17	0.173615	0.199222	-5.55026	0.57041	-18.5562	386.363	30.4492	-0.193946	-2.15255e-17	-0.148643	-0.0144396	0.30065	0.0236941
2.47385	-11.0359	309.397	-31.9305	-0.21238	-2.33726e-17	0.173684	0.198803	-5.57351	0.5752	-18.1877	384.338	30.3914	-0.19418	-2.155e-17	-0.148758	-0.0173154	0.365906	0.0289338
2.48382	-10.9577	310.52	-32.2388	-0.212525	-2.33869e-17	0.173827	0.197814	-5.60568	0.581994	-17.7666	383.149	30.4401	-0.194585	-2.15932e-17	-0.148931	-0.0202516	0.436742	0.0346979
2.4938	-10.8442	312.077	-32.618	-0.212857	-2.34219e-17	0.174075	0.196287	-5.6488	0.590407	-17.3116	382.739	30.5919	-0.195146	-2.16536e-17	-0.149173	-0.0233861	0.517038	0.0413264
2.50377	-10.6878	314.005	-33.0275	-0.213363	-2.34761e-17	0.174439	0.193923	-5.69739	0.59926	-16.8208	382.983	30.8288	-0.195859	-2.17305e-17	-0.149477	-0.0268199	0.610647	0.049155
2.51375	-10.4662	316.225	-33.4329	-0.214001	-2.35454e-17	0.174925	0.190283	-5.74924	0.607837	-16.2739	383.719	31.1205	-0.196726	-2.18243e-17	-0.14982	-0.0301706	0.711384	0.0576949
2.52372	-10.189	318.627	-33.8003	-0.214762	-2.36292e-17	0.175511	0.185301	-5.79463	0.614701	-15.6743	384.775	31.4278	-0.197734	-2.19337e-17	-0.1502	-0.0331958	0.814896	0.0665595
2.5337	-9.86949	321.094	-34.1167	-0.215656	-2.37284e-17	0.176177	0.179279	-5.83266	0.61973	-15.0369	385.967	31.7137	-0.198862	-2.20565e-17	-0.150615	-0.0357007	0.916363	0.0752947
2.54367	-9.5099	323.502	-34.3898	-0.216698	-2.38446e-17	0.176893	0.172167	-5.85669	0.622594	-14.3733	387.109	31.9495	-0.200113	-2.21932e-17	-0.151045	-0.0374163	1.00771	0.0831701
2.55365	-9.11461	325.743	-34.6324	-0.21786	-2.39745e-17	0.177639	0.164329	-5.87288	0.624394	-13.7222	388.038	32.1198	-0.201501	-2.23453e-17	-0.151468	-0.0384469	1.08721	0.0899931
